<svg width="177" height="24" viewBox="0 0 177 24" fill="none" xmlns="http://www.w3.org/2000/svg">
<g filter="url(#filter0_i_356_10)">
<path d="M152.766 5.55224V2.84819H151.744V2.32836H154.363V2.84819H153.34V5.55224H152.766Z" fill="black"/>
<path d="M154.636 5.55224V2.32836H155.427L156.334 3.95626L157.232 2.32836H158V5.55224H157.422V3.04883L156.445 4.79073H156.2L155.214 3.04883V5.55224H154.636Z" fill="black"/>
<path fill-rule="evenodd" clip-rule="evenodd" d="M130.689 4.52488C132.047 4.52488 133.175 4.8513 134.074 5.50399C134.973 6.13903 135.643 6.99462 136.084 8.07066C136.543 9.1467 136.771 10.3639 136.771 11.7222C136.771 13.0804 136.534 14.3064 136.058 15.4C135.582 16.4937 134.876 17.3583 133.942 17.9933C133.008 18.6284 131.853 18.9458 130.478 18.9458C129.896 18.9458 129.35 18.8753 128.838 18.7342C128.327 18.5931 127.869 18.408 127.463 18.1787C127.058 17.9494 126.731 17.7023 126.485 17.4378V24H122.28V4.78974H126.167L126.379 6.4302C126.996 5.74227 127.648 5.25692 128.335 4.97466C129.041 4.67479 129.825 4.52489 130.689 4.52488ZM129.605 8.36176C128.917 8.36178 128.336 8.52932 127.86 8.86444C127.401 9.18196 127.049 9.59645 126.802 10.108C126.573 10.6195 126.458 11.1664 126.458 11.7485C126.458 12.3306 126.573 12.8778 126.802 13.3893C127.031 13.9009 127.384 14.324 127.86 14.6591C128.336 14.9767 128.944 15.1356 129.684 15.1356C130.46 15.1356 131.059 14.968 131.483 14.6329C131.906 14.2977 132.205 13.8742 132.382 13.3627C132.558 12.8511 132.646 12.3396 132.646 11.828C132.646 11.2635 132.549 10.7167 132.355 10.1875C132.161 9.64073 131.844 9.1996 131.403 8.86444C130.963 8.52927 130.363 8.36176 129.605 8.36176Z" fill="black"/>
<path fill-rule="evenodd" clip-rule="evenodd" d="M41.1657 4.55153C43.2108 4.55153 44.7359 5.1249 45.7408 6.27153C46.7456 7.41812 47.2483 9.07614 47.2483 11.2458V18.7342H43.4137L43.3871 16.9084C42.9463 17.5787 42.444 18.0551 41.8799 18.3373C41.3158 18.6196 40.7869 18.7871 40.2933 18.84C39.7997 18.9106 39.4382 18.9458 39.209 18.9458C38.5567 18.9458 37.9395 18.8577 37.3577 18.6813C36.776 18.505 36.256 18.2403 35.7977 17.8876C35.3393 17.5348 34.9779 17.0936 34.7134 16.5644C34.449 16.0353 34.3168 15.418 34.3168 14.7124C34.3168 13.7069 34.5194 12.9128 34.9249 12.3307C35.348 11.731 35.9121 11.2898 36.6172 11.0076C37.3401 10.7077 38.1599 10.514 39.0767 10.4258C39.9934 10.3376 40.9455 10.2933 41.9328 10.2933H43.2551C43.2551 9.85232 43.1667 9.47307 42.9904 9.15555C42.8317 8.8204 42.5849 8.5558 42.2499 8.36176C41.915 8.16775 41.5007 8.07066 41.0071 8.07066C40.6546 8.07066 40.3196 8.12352 40.0023 8.22933C39.7026 8.31753 39.4468 8.44982 39.2353 8.62622C39.0413 8.78499 38.9091 8.98813 38.8386 9.23509H34.634C34.7574 8.40599 35.0132 7.70033 35.401 7.1182C35.8065 6.51843 36.3002 6.03311 36.8819 5.66266C37.4813 5.29229 38.1511 5.01902 38.8915 4.84264C39.6319 4.64861 40.39 4.55154 41.1657 4.55153ZM40.7162 12.9658C40.4341 12.9658 40.152 12.9834 39.87 13.0187C39.6056 13.054 39.3677 13.1248 39.1562 13.2306C38.9446 13.3188 38.7768 13.4511 38.6534 13.6275C38.5301 13.8039 38.4686 14.0331 38.4686 14.3151C38.4686 14.615 38.548 14.871 38.7067 15.0827C38.8653 15.2766 39.0766 15.4266 39.341 15.5325C39.623 15.6383 39.9317 15.6911 40.2667 15.6911C40.7956 15.6911 41.2892 15.5765 41.7476 15.3471C42.2059 15.1002 42.5764 14.7917 42.8584 14.4213C43.1582 14.0332 43.308 13.6184 43.308 13.1774V12.9658H40.7162Z" fill="black"/>
<path fill-rule="evenodd" clip-rule="evenodd" d="M53.3374 6.29777C53.8839 5.68037 54.5364 5.23067 55.2944 4.94842C56.0525 4.66619 56.8458 4.52489 57.6744 4.52488C59.0319 4.52488 60.1428 4.8423 61.0066 5.47734C61.8881 6.09471 62.5402 6.95041 62.9633 8.04401C63.404 9.12002 63.6246 10.355 63.6247 11.7485C63.6247 13.1244 63.404 14.3596 62.9633 15.4533C62.5402 16.5293 61.8791 17.385 60.98 18.02C60.0809 18.6373 58.9261 18.9458 57.5158 18.9458C57.1279 18.9458 56.6871 18.9106 56.1935 18.84C55.6999 18.7694 55.1976 18.6105 54.6863 18.3636C54.1927 18.1166 53.7167 17.7374 53.2583 17.2258L53.2317 18.7342H49.1327V0H53.3374V6.29777ZM56.4844 8.36176C55.7969 8.36177 55.2152 8.52068 54.7392 8.8382C54.2632 9.13808 53.9018 9.55256 53.6549 10.0818C53.4258 10.5933 53.3112 11.1488 53.3112 11.7485C53.3112 12.3482 53.4168 12.913 53.6283 13.4422C53.8575 13.9714 54.2013 14.3949 54.6597 14.7124C55.1357 15.0299 55.744 15.1884 56.4844 15.1885C57.2778 15.1885 57.886 15.0119 58.3091 14.6591C58.7498 14.2887 59.0585 13.8303 59.2348 13.2835C59.4111 12.7367 59.4991 12.1809 59.4991 11.6164C59.4991 11.0696 59.4021 10.549 59.2082 10.0551C59.0142 9.54362 58.6969 9.13805 58.2563 8.8382C57.8155 8.52067 57.2249 8.36176 56.4844 8.36176Z" fill="black"/>
<path d="M86.1788 4.52488C87.1485 4.52488 88.0477 4.68379 88.8764 5.00131C89.705 5.3012 90.3926 5.79512 90.9391 6.48309C91.5032 7.15338 91.8557 8.03532 91.9968 9.1289H87.9507C87.8978 8.77618 87.6951 8.49387 87.3426 8.28222C86.99 8.07056 86.5491 7.96487 86.0203 7.96487C85.8264 7.96488 85.6323 7.99109 85.4384 8.04401C85.2445 8.07929 85.0684 8.13256 84.9098 8.20309C84.7687 8.25601 84.6451 8.34407 84.5393 8.46755C84.4512 8.59101 84.407 8.74096 84.407 8.91733C84.407 9.04081 84.4426 9.1645 84.5131 9.28798C84.6013 9.4114 84.7246 9.52619 84.8831 9.63198C85.0594 9.72018 85.2801 9.80824 85.5445 9.89644C86.1439 10.0199 86.7256 10.1432 87.2897 10.2667C87.8539 10.3725 88.3917 10.4786 88.903 10.5844C89.4671 10.7079 90.0136 10.9107 90.5425 11.1929C91.0713 11.4575 91.5032 11.8368 91.8382 12.3307C92.1908 12.8246 92.3672 13.495 92.3672 14.3418C92.3672 15.2237 92.1821 15.9647 91.8119 16.5644C91.4594 17.1642 90.9832 17.6315 90.3839 17.9667C89.7845 18.3018 89.132 18.5488 88.4268 18.7076C87.7216 18.8663 87.0164 18.9458 86.3112 18.9458C85.6413 18.9458 84.9536 18.8663 84.2484 18.7076C83.5609 18.5488 82.9174 18.2932 82.318 17.9404C81.7186 17.5876 81.2163 17.1023 80.8109 16.4849C80.4054 15.8675 80.1319 15.0914 79.9909 14.1565H84.2222C84.3279 14.4386 84.4864 14.6857 84.6979 14.8973C84.9271 15.0914 85.2006 15.2413 85.5179 15.3471C85.8528 15.4353 86.1877 15.4795 86.5226 15.4796C86.7518 15.4796 86.9724 15.4619 87.184 15.4267C87.3955 15.3914 87.5806 15.3295 87.7392 15.2413C87.9155 15.1532 88.0478 15.0474 88.1359 14.924C88.224 14.7829 88.2682 14.6153 88.2683 14.4213C88.2683 14.1391 88.1712 13.9359 87.9773 13.8125C87.801 13.6713 87.5452 13.5657 87.2102 13.4951C86.8929 13.4069 86.5228 13.3188 86.0998 13.2306C85.4122 13.0895 84.6717 12.913 83.8784 12.7013C83.1028 12.4897 82.4416 12.2074 81.8951 11.8546C81.6307 11.6783 81.4014 11.4841 81.2075 11.2724C81.0136 11.0431 80.8548 10.8048 80.7314 10.5578C80.6256 10.2933 80.5376 10.0199 80.4671 9.73776C80.4142 9.43788 80.3876 9.12007 80.3876 8.7849C80.3876 8.0088 80.555 7.34725 80.8899 6.80044C81.2425 6.25361 81.6924 5.8125 82.2389 5.47734C82.803 5.14224 83.429 4.9042 84.1165 4.7631C84.8039 4.60437 85.4914 4.52489 86.1788 4.52488Z" fill="black"/>
<path d="M100.233 4.52488C101.414 4.5249 102.463 4.74567 103.38 5.18664C104.314 5.60998 105.054 6.22726 105.601 7.03866C106.165 7.85011 106.483 8.84697 106.553 10.0289H102.481C102.339 9.46439 102.066 9.04951 101.661 8.7849C101.273 8.50268 100.797 8.36179 100.233 8.36176C99.5102 8.36176 98.9371 8.54692 98.514 8.91733C98.1085 9.27014 97.8174 9.71123 97.6411 10.2404C97.4825 10.7696 97.4031 11.2902 97.4031 11.8018C97.4031 12.3662 97.4915 12.9041 97.6678 13.4156C97.8617 13.9271 98.1614 14.3416 98.5668 14.6591C98.9899 14.9767 99.5278 15.1356 100.18 15.1356C100.779 15.1355 101.282 14.9946 101.687 14.7124C102.11 14.4302 102.384 14.0153 102.507 13.4685H106.685C106.632 14.668 106.297 15.6735 105.68 16.4849C105.081 17.2964 104.296 17.914 103.327 18.3373C102.357 18.743 101.282 18.9458 100.101 18.9458C98.6902 18.9458 97.4737 18.6636 96.4512 18.0991C95.4287 17.517 94.6354 16.688 94.0712 15.612C93.5247 14.536 93.2513 13.2658 93.2513 11.8018C93.2513 10.3023 93.5333 9.01429 94.0975 7.93823C94.6793 6.84455 95.4905 6.00657 96.5307 5.42445C97.5708 4.82475 98.805 4.52488 100.233 4.52488Z" fill="black"/>
<path fill-rule="evenodd" clip-rule="evenodd" d="M114.313 4.55153C116.358 4.55153 117.883 5.12491 118.888 6.27153C119.893 7.41812 120.395 9.07619 120.395 11.2458V18.7342H116.561L116.534 16.9084C116.093 17.5788 115.591 18.0551 115.027 18.3373C114.463 18.6195 113.934 18.7871 113.44 18.84C112.946 18.9106 112.585 18.9458 112.356 18.9458C111.704 18.9458 111.087 18.8577 110.505 18.6813C109.923 18.5049 109.403 18.2404 108.944 17.8876C108.486 17.5347 108.125 17.0937 107.86 16.5644C107.596 16.0353 107.464 15.4179 107.464 14.7124C107.464 13.7069 107.666 12.9128 108.072 12.3307C108.495 11.7309 109.059 11.2898 109.764 11.0076C110.487 10.7077 111.307 10.514 112.224 10.4258C113.141 10.3376 114.093 10.2933 115.08 10.2933H116.402C116.402 9.85233 116.314 9.47307 116.138 9.15555C115.979 8.82039 115.732 8.55581 115.397 8.36176C115.062 8.16773 114.648 8.07067 114.154 8.07066C113.802 8.07066 113.466 8.12349 113.149 8.22933C112.85 8.31752 112.594 8.44988 112.382 8.62622C112.189 8.78499 112.056 8.98812 111.986 9.23509H107.781C107.905 8.40604 108.16 7.70031 108.548 7.1182C108.953 6.51843 109.447 6.03311 110.029 5.66266C110.628 5.29222 111.298 5.01904 112.039 4.84264C112.779 4.64859 113.537 4.55153 114.313 4.55153ZM113.863 12.9658C113.581 12.9658 113.299 12.9834 113.017 13.0187C112.753 13.054 112.515 13.1248 112.303 13.2306C112.091 13.3188 111.924 13.4512 111.801 13.6275C111.677 13.8039 111.615 14.033 111.615 14.3151C111.615 14.615 111.695 14.871 111.853 15.0827C112.012 15.2767 112.224 15.4266 112.488 15.5325C112.77 15.6383 113.079 15.6911 113.414 15.6911C113.943 15.6911 114.436 15.5764 114.895 15.3471C115.353 15.1002 115.723 14.7917 116.005 14.4213C116.305 14.0332 116.455 13.6184 116.455 13.1774V12.9658H113.863Z" fill="black"/>
<path fill-rule="evenodd" clip-rule="evenodd" d="M144.649 4.52488C145.689 4.5249 146.606 4.69245 147.399 5.02756C148.21 5.36271 148.898 5.83907 149.462 6.45645C150.044 7.07386 150.476 7.80614 150.758 8.65287C151.057 9.49959 151.207 10.4256 151.207 11.4311C151.19 11.6957 151.172 11.9603 151.154 12.2249C151.137 12.4719 151.093 12.7278 151.022 12.9924H141.767C141.819 13.4333 141.952 13.839 142.163 14.2093C142.375 14.5798 142.674 14.871 143.062 15.0827C143.45 15.2943 143.944 15.4 144.543 15.4C144.966 15.4 145.345 15.3562 145.68 15.268C146.033 15.1622 146.324 15.0209 146.553 14.8445C146.782 14.6504 146.932 14.4387 147.003 14.2093H151.128C150.899 15.3207 150.458 16.2295 149.806 16.9351C149.154 17.623 148.378 18.1346 147.479 18.4698C146.58 18.7873 145.628 18.9458 144.623 18.9458C143.177 18.9458 141.925 18.655 140.868 18.0729C139.827 17.4908 139.025 16.6704 138.461 15.612C137.897 14.5359 137.615 13.2745 137.615 11.828C137.615 10.3815 137.906 9.11146 138.488 8.01777C139.069 6.92408 139.88 6.0685 140.92 5.4511C141.978 4.83369 143.221 4.52488 144.649 4.52488ZM144.57 7.88533C143.97 7.88533 143.468 8.00001 143.062 8.22933C142.657 8.45865 142.357 8.74987 142.163 9.10265C141.969 9.4554 141.864 9.80816 141.846 10.1609H147.214C147.214 9.7905 147.117 9.42877 146.924 9.07601C146.747 8.72322 146.465 8.44101 146.077 8.22933C145.689 8.00008 145.187 7.88534 144.57 7.88533Z" fill="black"/>
<path d="M24.2841 14.7916H33.5134V18.7342H20V0H24.2841V14.7916Z" fill="black"/>
<path d="M69.8098 4.55355V7.51509H77.8224V11.3253H69.8098V14.7916H79.3299V18.7342H65.5256V1.17573L69.8098 4.55355Z" fill="black"/>
<path d="M79.3299 3.96931H71.1212L66.0869 0H79.3299V3.96931Z" fill="black"/>
</g>
<defs>
<filter id="filter0_i_356_10" x="20" y="0" width="142" height="28" filterUnits="userSpaceOnUse" color-interpolation-filters="sRGB">
<feFlood flood-opacity="0" result="BackgroundImageFix"/>
<feBlend mode="normal" in="SourceGraphic" in2="BackgroundImageFix" result="shape"/>
<feColorMatrix in="SourceAlpha" type="matrix" values="0 0 0 0 0 0 0 0 0 0 0 0 0 0 0 0 0 0 127 0" result="hardAlpha"/>
<feOffset dx="4" dy="4"/>
<feGaussianBlur stdDeviation="3"/>
<feComposite in2="hardAlpha" operator="arithmetic" k2="-1" k3="1"/>
<feColorMatrix type="matrix" values="0 0 0 0 0.0627451 0 0 0 0 0.0627451 0 0 0 0 0.0627451 0 0 0 0.2 0"/>
<feBlend mode="normal" in2="shape" result="effect1_innerShadow_356_10"/>
</filter>
</defs>
</svg>
